# xmcd CD database file
#
# Track frame offsets:
#	150
#	24491
#	63846
#	88848
#	140106
#	163961
#
# Disc length: 3059 seconds
#
# Revision: 0
# Processed by: cddbd v1.5.2PL0 Copyright (c) Steve Scherf et al.
# Submitted via: CDex 1.51
#
DISCID=510bf106
DTITLE=Paczynski Levinson Jenny-clark - Levin'song
DYEAR=1994
DGENRE=Jazz
TTITLE0=Dans L'escalier
TTITLE1=Exercice Pour Floremce
TTITLE2=Mado
TTITLE3=Melchior
TTITLE4=Transit
TTITLE5=Almayer
EXTD=YEAR: 1994
EXTT0=
EXTT1=
EXTT2=
EXTT3=
EXTT4=
EXTT5=
PLAYORDER=
